<svg xmlns="http://www.w3.org/2000/svg" viewBox="0 0 201.52 222.18"><defs><style>.cls-1{fill:#fff;}</style></defs><title>bulb</title><g id="Layer_10" data-name="Layer 10"><path class="cls-1" d="M227.62,134.49h25.83v10.33H227.62Z" transform="translate(-51.94 -38.9)"/><path class="cls-1" d="M51.94,134.49H77.77v10.33H51.94Z" transform="translate(-51.94 -38.9)"/><path class="cls-1" d="M147.53,38.9h10.33V63.7H147.53Z" transform="translate(-51.94 -38.9)"/><path class="cls-1" d="M201.81,82.06l17.53-17.54,7.31,7.31L209.11,89.37Z" transform="translate(-51.94 -38.9)"/><path class="cls-1" d="M78.63,205.32l17.54-17.54,7.3,7.31L85.93,212.63Z" transform="translate(-51.94 -38.9)"/><path class="cls-1" d="M78.77,71.68l7.31-7.3,17.54,17.53-7.31,7.31Z" transform="translate(-51.94 -38.9)"/><path class="cls-1" d="M201.85,195l7.31-7.3,17.53,17.53-7.3,7.31Z" transform="translate(-51.94 -38.9)"/><path class="cls-1" d="M183.7,248.17V212c0-12.4,3.62-22.22,10.59-28.68a63,63,0,0,0,.26-91.2,59.69,59.69,0,0,0-45-17.05c-31.26,1.55-56.84,27.65-58.13,59.42a63,63,0,0,0,19.37,48.57c7.24,7,10.85,16.28,10.85,28.94v36.17c0,5.16,4.4,12.92,12.66,12.92h37c8,0,12.4-7.76,12.4-12.92Zm-51.67,0v-6h28.72v-6.9H132v-8.6h28.72v-6.9H132v-8.6h28.72v-6.9H131.51c-1.29-11.89-5.94-21.45-13.43-28.68a53.14,53.14,0,0,1-16.28-40.3c1-26.61,22.22-48.57,48.31-49.86h2.59a50.59,50.59,0,0,1,34.87,14,52.74,52.74,0,0,1,16.28,38,52.19,52.19,0,0,1-16.53,38.24q-14,13.19-14,36.43v36.17c0,.52-.77,2.58-2.32,2.58H134.35c-1.55,0-2.32-2.06-2.32-2.58Z" transform="translate(-51.94 -38.9)"/></g></svg>