<svg xmlns="http://www.w3.org/2000/svg" viewBox="0 0 184.66 222.18"><defs><style>.cls-1{fill:#00b8d1;}</style></defs><title>glwguy</title><g id="Layer_4" data-name="Layer 4"><path class="cls-1" d="M149.86,45.84a17.36,17.36,0,1,0,17.35,17.37,17.38,17.38,0,0,0-17.35-17.37m0,41.67a24.31,24.31,0,1,1,24.3-24.3,24.33,24.33,0,0,1-24.3,24.3" transform="translate(-57.53 -38.9)"/><path class="cls-1" d="M177.63,177.77h-6.94a3.47,3.47,0,0,1-3.47-3.47V125.69a3.47,3.47,0,0,1,6.94,0v45.13h3.47a3.47,3.47,0,0,0,3.47-3.47V115.71a10.4,10.4,0,0,0-7.89-10.11l-15.35-3.84-5.55,5.56a3.48,3.48,0,0,1-4.91,0l-5.55-5.56L126.5,105.6a10.41,10.41,0,0,0-7.89,10.11v51.64a3.47,3.47,0,0,0,3.47,3.47h3.48V125.69a3.47,3.47,0,1,1,6.94,0V174.3a3.47,3.47,0,0,1-3.47,3.47h-7a10.42,10.42,0,0,1-10.41-10.42V115.71a17.33,17.33,0,0,1,13.15-16.85l17.26-4.31a3.5,3.5,0,0,1,3.29.91l4.49,4.49,4.48-4.49a3.53,3.53,0,0,1,3.3-.91l17.25,4.31A17.33,17.33,0,0,1,188,115.71v51.64a10.42,10.42,0,0,1-10.41,10.42" transform="translate(-57.53 -38.9)"/><path class="cls-1" d="M157.36,261.09h-15A10.49,10.49,0,0,1,132,251.54l-6.41-76.95a3.47,3.47,0,0,1,6.92-.59l6.41,77a3.45,3.45,0,0,0,3.46,3.18h15a3.44,3.44,0,0,0,3.45-3.18l6.42-77a3.47,3.47,0,0,1,6.92.59l-6.42,76.95a10.47,10.47,0,0,1-10.37,9.55" transform="translate(-57.53 -38.9)"/><rect class="cls-1" x="71.58" y="228.76" width="28.02" height="8.66" transform="translate(-188.14 72.06) rotate(-40.38)"/><rect class="cls-1" x="81.26" y="48.68" width="8.66" height="28.02" transform="translate(-75.13 48.4) rotate(-49.63)"/><rect class="cls-1" y="106.54" width="28.82" height="8.67"/><rect class="cls-1" x="209.8" y="219.08" width="8.66" height="28.02" transform="translate(-159.68 206.38) rotate(-49.63)"/><rect class="cls-1" x="200.12" y="58.36" width="28.02" height="8.66" transform="translate(-47.13 114.74) rotate(-40.38)"/><rect class="cls-1" x="155.84" y="106.54" width="28.82" height="8.67"/></g></svg>