<?xml version="1.0" encoding="UTF-8" standalone="no"?>

<svg
   version="1.1"
   x="0px"
   y="0px"
   viewBox="0 0 979.90015 885.09998"
   enable-background="new 0 0 1000 1000"
   xml:space="preserve"
   id="svg276"
   sodipodi:docname="0efd12570467cb4f83427e4ce3d482cd.svg"
   width="979.90015"
   height="885.09998"
   inkscape:version="1.1.2 (b8e25be8, 2022-02-05)"
   xmlns:inkscape="http://www.inkscape.org/namespaces/inkscape"
   xmlns:sodipodi="http://sodipodi.sourceforge.net/DTD/sodipodi-0.dtd"
   xmlns="http://www.w3.org/2000/svg"
   xmlns:svg="http://www.w3.org/2000/svg"><defs
   id="defs280" /><sodipodi:namedview
   id="namedview278"
   pagecolor="#ffffff"
   bordercolor="#666666"
   borderopacity="1.0"
   inkscape:pageshadow="2"
   inkscape:pageopacity="0.0"
   inkscape:pagecheckerboard="0"
   showgrid="false"
   inkscape:zoom="0.625"
   inkscape:cx="490.4"
   inkscape:cy="442.4"
   inkscape:window-width="1296"
   inkscape:window-height="847"
   inkscape:window-x="0"
   inkscape:window-y="25"
   inkscape:window-maximized="0"
   inkscape:current-layer="svg276" />
<metadata
   id="metadata266"></metadata>
<g
   id="g274"
   style="fill:#ffffff"
   transform="translate(-10,-57.4)"><path
     d="M 895.2,57.4 H 104.8 C 52.6,57.4 10,100.1 10,152.2 10,204.4 52.7,247 104.8,247 h 790.3 c 52.2,0 94.8,-42.7 94.8,-94.8 0.1,-52.1 -42.6,-94.8 -94.7,-94.8 z"
     id="path268"
     style="fill:#ffffff" /><path
     d="M 895.2,405.2 H 104.8 C 52.7,405.2 10,447.8 10,500 c 0,52.2 42.7,94.8 94.8,94.8 h 790.3 c 52.2,0 94.8,-42.7 94.8,-94.8 0.1,-52.2 -42.6,-94.8 -94.7,-94.8 z"
     id="path270"
     style="fill:#ffffff" /><path
     d="M 895.2,752.9 H 104.8 c -52.2,0 -94.8,42.7 -94.8,94.8 0,52.2 42.7,94.8 94.8,94.8 h 790.3 c 52.2,0 94.8,-42.7 94.8,-94.8 0.1,-52.1 -42.6,-94.8 -94.7,-94.8 z"
     id="path272"
     style="fill:#ffffff" /></g>
</svg>
