<?xml version="1.0" encoding="UTF-8" standalone="no"?>
<!-- Created with Inkscape (http://www.inkscape.org/) -->

<svg
   width="178.23859mm"
   height="32.331795mm"
   viewBox="0 0 178.23859 32.331795"
   version="1.1"
   id="svg3360"
   xmlns="http://www.w3.org/2000/svg"
   xmlns:svg="http://www.w3.org/2000/svg">
  <defs
     id="defs3357">
    <clipPath
       clipPathUnits="userSpaceOnUse"
       id="clipPath223">
      <path
         d="M 0,8834 H 1920 V 0 H 0 Z"
         id="path221" />
    </clipPath>
    <clipPath
       clipPathUnits="userSpaceOnUse"
       id="clipPath223-5">
      <path
         d="M 0,8834 H 1920 V 0 H 0 Z"
         id="path221-7" />
    </clipPath>
  </defs>
  <g
     id="layer1"
     transform="matrix(0.6367224,0,0,0.6367224,41.918294,-91.246599)"
     style="fill:#808080">
    <g
       id="g3645"
       style="fill:#808080">
      <g
         id="g217"
         transform="matrix(0.35277777,0,0,-0.35277777,-264.53544,3062.1793)"
         style="fill:#808080">
        <g
           id="g219"
           clip-path="url(#clipPath223)"
           style="fill:#808080">
          <g
             id="g225"
             transform="translate(877.2588,8229.4502)"
             style="fill:#808080">
            <path
               d="M 0,0 C 0,26.123 -18.212,40.473 -43.229,40.473 H -84.436 V 20.604 h 41.207 c 13.059,0 23.362,-5.151 23.362,-19.498 0,-14.535 -9.749,-20.973 -23.362,-20.973 h -41.207 v -20.052 h 31.088 l 27.594,-56.843 h 22.629 l -28.516,57.579 C -11.773,-34.399 0,-20.786 0,0"
               style="fill:#808080;fill-opacity:1;fill-rule:nonzero;stroke:none"
               id="path227" />
          </g>
          <g
             id="g229"
             transform="translate(637.1978,8273.9697)"
             style="fill:#808080">
            <path
               d="m 0,0 c -39.367,0 -73.951,-30.354 -73.951,-70.641 0,-38.026 27.179,-68.578 63.834,-73.298 v 20.498 c -24.325,4.396 -44.149,24.332 -44.149,50.409 0,30.904 23.547,52.796 54.084,52.796 29.249,0 54.084,-21.34 54.084,-51.508 0,-26.369 -19.166,-47.231 -43.967,-51.696 v -20.456 c 35.251,4.772 63.834,34.061 63.834,71.049 C 73.769,-31.825 40.655,0 0,0"
               style="fill:#808080;fill-opacity:1;fill-rule:nonzero;stroke:none"
               id="path231" />
          </g>
          <path
             d="m 953.321,8132.688 h 19.5 v 97.131 h -19.5 z"
             style="fill:#808080;fill-opacity:1;fill-rule:nonzero;stroke:none"
             id="path233" />
          <path
             d="m 904.387,8269.924 h 116.816 v -20.053 H 904.387 Z"
             style="fill:#808080;fill-opacity:1;fill-rule:nonzero;stroke:none"
             id="path235" />
          <g
             id="g237"
             transform="translate(1191.1377,8152.7402)"
             style="fill:#808080">
            <path
               d="M 0,0 V 117.184 H -137.234 V -20.051 h 58.591 V 0 h -38.54 v 97.131 h 97.131 V 0 H -58.591 V -20.051 H 0 Z"
               style="fill:#808080;fill-opacity:1;fill-rule:nonzero;stroke:none"
               id="path239" />
          </g>
          <g
             id="g241"
             transform="translate(1226.0313,8132.6885)"
             style="fill:#808080">
            <path
               d="M 0,0 H 25.518 L 54.738,39.985 42.203,57.139 Z"
               style="fill:#808080;fill-opacity:1;fill-rule:nonzero;stroke:none"
               id="path243" />
          </g>
          <g
             id="g245"
             transform="translate(1303.8711,8204.2852)"
             style="fill:#808080">
            <path
               d="M 0,0 47.967,65.639 H 23.522 L -12.479,16.896 -48.48,65.638 H -72.925 L 27.364,-71.597 h 25.518 z"
               style="fill:#808080;fill-opacity:1;fill-rule:nonzero;stroke:none"
               id="path247" />
          </g>
        </g>
      </g>
      <g
         id="g213"
         transform="matrix(0.35277777,0,0,-0.35277777,8.1375542,165.77592)"
         style="fill:#808080">
        <path
           d="M 0,0 V 40.471 60.34 H -20.052 V -76.895 H 0 v 35.586 21.257 z"
           style="fill:#808080;fill-opacity:1;fill-rule:nonzero;stroke:none"
           id="path215" />
      </g>
    </g>
  </g>
  <path
     style="fill:#666666;stroke-width:1.79603;fill-opacity:1"
     d="M 162.54085,61.065071 V 4.4900787 h 7.18413 7.18412 V 61.065071 117.64006 h -7.18412 -7.18413 z"
     id="path23781"
     transform="scale(0.26458333)" />
  <path
     style="fill:#666666;fill-opacity:1;stroke-width:1.79603"
     d="M 163.43887,61.065071 V 4.4900787 h 6.28611 6.28611 V 61.065071 117.64006 h -6.28611 -6.28611 z"
     id="path24136"
     transform="scale(0.26458333)" />
  <path
     style="fill:#666666;fill-opacity:1;stroke-width:1.79603"
     d="M 233.95547,95.189669 221.87154,70.943244 h -13.05205 -13.05206 v -8.082142 -8.082141 h 22.53204 c 21.52818,0 22.72843,-0.196404 26.94047,-4.40844 6.41036,-6.410366 6.29267,-20.135304 -0.22519,-26.26003 -4.2975,-4.0383 -6.25173,-4.400112 -26.94047,-4.987833 L 195.76743,18.488969 V 11.489524 4.4900787 h 21.61007 c 29.18477,0 38.1136,3.7370814 45.05731,18.8583303 8.37434,18.23673 -0.0174,38.55408 -18.88754,45.728464 l -4.77421,1.815155 3.90804,7.658742 c 2.14942,4.212308 7.37824,15.134723 11.6196,24.27203 l 7.71157,16.61329 h -7.98644 -7.98643 z"
     id="path24175"
     transform="scale(0.26458333)" />
  <path
     style="fill:#666666;fill-opacity:1;stroke-width:1.79603"
     d="M 40.055087,117.4558 C 28.065618,112.84642 14.751374,100.83587 8.1016766,88.631185 3.7591056,80.66094 2.7412629,76.39038 2.1237699,63.549697 1.4544249,49.630758 1.87665,46.966349 6.3211136,37.062766 12.21781,23.923175 23.040712,13.306565 37.402094,6.5742064 45.933468,2.5748504 50.083161,1.7960315 62.861102,1.7960315 c 12.791723,0 16.92465,0.7773513 25.497358,4.7957315 12.47098,5.845662 24.42886,17.449396 30.14031,29.247667 6.22729,12.863865 7.04622,32.643535 1.91455,46.24214 -6.71123,17.784367 -25.287392,34.01102 -43.632974,38.11429 -4.8019,1.07402 -4.939086,0.88716 -4.939086,-6.72737 0,-7.6013 0.214967,-7.89647 7.295782,-10.01794 8.976831,-2.68952 20.412404,-12.759595 25.558518,-22.506618 5.37371,-10.178125 5.39056,-29.570676 0.0344,-39.635208 C 96.213874,25.306405 81.764698,17.141188 61.963087,17.141188 c -14.570888,0 -24.028497,3.57156 -32.869871,12.412932 -8.527563,8.527563 -11.566671,15.603994 -12.539253,29.197093 -0.754916,10.550929 -0.240237,13.359058 4.059047,22.146478 5.406528,11.050542 14.942093,19.248179 26.373624,22.673149 6.619276,1.98318 6.894311,2.37666 6.894311,9.86343 0,8.9674 -0.547165,9.12655 -13.825858,4.02153 z"
     id="path24214"
     transform="scale(0.26458333)" />
  <path
     style="fill:#666666;fill-opacity:1;stroke-width:1.79603"
     d="m 347.4042,79.025386 c 10e-4,-22.719799 0.25865,-31.766608 0.57197,-20.104022 0.31333,11.662588 0.3123,30.251514 -0.002,41.308726 -0.31459,11.05721 -0.57094,1.51509 -0.56968,-21.204704 z"
     id="path24253"
     transform="scale(0.26458333)" />
  <path
     style="fill:#666666;fill-opacity:1;stroke-width:1.79603"
     d="M 332.26583,79.025386 V 38.614677 h 7.18412 7.18413 v 40.410709 40.410704 h -7.18413 -7.18412 z"
     id="path24292"
     transform="scale(0.26458333)" />
  <path
     style="fill:#666666;fill-opacity:1;stroke-width:1.79603"
     d="M 290.9571,11.674205 V 4.4900787 h 48.49285 48.49285 v 7.1841263 7.184126 H 339.44995 290.9571 Z"
     id="path24331"
     transform="scale(0.26458333)" />
  <path
     style="fill:#666666;fill-opacity:1;stroke-width:1.79603"
     d="M 416.67931,61.963087 V 4.4900787 h 57.473 57.47301 V 61.963087 119.43609 H 508.27691 484.9285 v -8.08214 -8.08214 h 16.16429 16.16428 V 61.065071 18.858331 h -42.20674 -42.20674 v 42.20674 42.206739 h 16.16428 16.16429 v 8.08214 8.08214 h -24.24643 -24.24642 z"
     id="path24370"
     transform="scale(0.26458333)" />
  <path
     style="fill:#666666;fill-opacity:1;stroke-width:1.79603"
     d="M 617.83483,71.469503 C 598.5724,45.092765 579.73694,19.231912 575.97826,14.000939 l -6.83397,-9.5108603 h 8.93211 8.93211 l 14.96416,20.5403003 c 8.23028,11.297163 15.42652,20.591626 15.99163,20.654362 0.56512,0.06273 7.78079,-9.180401 16.03482,-20.5403 L 649.00645,4.4900787 h 8.66062 c 4.76334,0 8.66062,0.3662462 8.66062,0.8138805 0,0.4476341 -8.18003,11.9646858 -18.17785,25.5934488 -9.99781,13.628763 -18.56542,25.77652 -19.03913,26.995018 -0.47371,1.218496 7.90838,14.101682 18.62685,28.629297 10.71848,14.527617 20.54424,27.876467 21.83502,29.664107 2.18276,3.02296 1.68034,3.24995 -7.18412,3.24582 l -9.53101,-0.004 z"
     id="path24409"
     transform="scale(0.26458333)" />
  <path
     style="fill:#666666;fill-opacity:1;stroke-width:1.79603"
     d="m 565.74992,118.5011 c 0,-0.76304 29.06966,-40.905872 31.83808,-43.965793 0.92727,-1.024912 9.44814,9.140957 9.46172,11.288367 0.005,0.775606 -5.30913,8.655694 -11.80897,17.511306 l -11.81789,16.10111 h -8.83647 c -4.86006,0 -8.83647,-0.42074 -8.83647,-0.93499 z"
     id="path24448"
     transform="scale(0.26458333)" />
</svg>
