<?xml version="1.0" encoding="UTF-8" standalone="no"?>
<svg
   viewBox="0 0 248.68148 223.21719"
   version="1.1"
   id="svg20"
   sodipodi:docname="sat.svg"
   width="248.68149"
   height="223.21719"
   inkscape:version="1.1.2 (b8e25be8, 2022-02-05)"
   xmlns:inkscape="http://www.inkscape.org/namespaces/inkscape"
   xmlns:sodipodi="http://sodipodi.sourceforge.net/DTD/sodipodi-0.dtd"
   xmlns="http://www.w3.org/2000/svg"
   xmlns:svg="http://www.w3.org/2000/svg">
  <sodipodi:namedview
     id="namedview22"
     pagecolor="#ffffff"
     bordercolor="#666666"
     borderopacity="1.0"
     inkscape:pageshadow="2"
     inkscape:pageopacity="0.0"
     inkscape:pagecheckerboard="0"
     showgrid="false"
     inkscape:zoom="2.7999283"
     inkscape:cx="124.46747"
     inkscape:cy="111.61"
     inkscape:window-width="1312"
     inkscape:window-height="847"
     inkscape:window-x="0"
     inkscape:window-y="25"
     inkscape:window-maximized="0"
     inkscape:current-layer="svg20" />
  <defs
     id="defs11">
    <style
       id="style9">.cls-1{fill:#00b8d1;}</style>
  </defs>
  <title
     id="title13">sat</title>
  <g
     id="Layer_3"
     data-name="Layer 3"
     transform="translate(-8.0517219e-4,-0.00281211)">
    <path
       class="cls-1"
       d="m 153.36,241.28 a 60.34,60.34 0 0 0 4.21,9.22 C 91.57,266.79 24.78,214.08 25.69,145.93 a 107.51,107.51 0 0 1 107.4,-107.4 c 67.12,-0.79 119.35,63.67 105.21,129.1 a 60.34,60.34 0 0 0 -9.36,-4 94.64,94.64 0 0 0 1.4,-12.66 h -11.45 v -9.91 h 11.43 A 97.41,97.41 0 0 0 138,48.69 V 60.2 h -9.91 V 48.69 A 97.41,97.41 0 0 0 35.81,141.05 H 47.28 V 151 H 35.86 a 97.43,97.43 0 0 0 92.27,92.2 V 231.8 H 138 v 11.34 a 98.62,98.62 0 0 0 15.32,-1.86 z M 128.13,143.87 93,179 l 7,7 38,-38 V 75.61 h -9.91 z"
       transform="translate(-25.68,-38.52)"
       id="path15" />
    <path
       class="cls-1"
       d="M 257.33,201.47 H 251 v -12.68 h -74.55 v 26.29 a 80.09,80.09 0 0 0 13.48,44.55 l 1.41,2.11 h 44.76 l 1.41,-2.13 a 80,80 0 0 0 10.61,-23.25 h 9.21 a 17.45,17.45 0 0 0 0,-34.89 z m -15.86,-3.17 v 14.28 H 186 V 198.3 Z m -10.53,53.92 H 196.5 a 70.32,70.32 0 0 1 -10.15,-30.13 h 54.74 a 70.32,70.32 0 0 1 -10.15,30.13 z m 26.39,-25.37 h -7.2 a 80,80 0 0 0 0.86,-11.77 V 211 h 6.34 a 7.93,7.93 0 0 1 0,15.86 z"
       transform="translate(-25.68,-38.52)"
       id="path17" />
  </g>
</svg>
