<svg xmlns="http://www.w3.org/2000/svg" viewBox="0 0 249.1 223.22"><defs><style>.cls-1{fill:#00b8d1;}</style></defs><title>sat</title><g id="Layer_3" data-name="Layer 3"><path class="cls-1" d="M153.36,241.28a60.34,60.34,0,0,0,4.21,9.22c-66,16.29-132.79-36.42-131.88-104.57a107.51,107.51,0,0,1,107.4-107.4c67.12-.79,119.35,63.67,105.21,129.1a60.34,60.34,0,0,0-9.36-4,94.64,94.64,0,0,0,1.4-12.66H218.89v-9.91h11.43A97.41,97.41,0,0,0,138,48.69V60.2h-9.91V48.69a97.41,97.41,0,0,0-92.28,92.36H47.28V151H35.86a97.43,97.43,0,0,0,92.27,92.2V231.8H138v11.34a98.62,98.62,0,0,0,15.32-1.86Zm-25.23-97.41L93,179l7,7,38-38V75.61h-9.91Z" transform="translate(-25.68 -38.52)"/><path class="cls-1" d="M257.33,201.47H251V188.79H176.45v26.29a80.09,80.09,0,0,0,13.48,44.55l1.41,2.11H236.1l1.41-2.13a80,80,0,0,0,10.61-23.25h9.21a17.45,17.45,0,0,0,0-34.89Zm-15.86-3.17v14.28H186V198.3Zm-10.53,53.92H196.5a70.32,70.32,0,0,1-10.15-30.13h54.74A70.32,70.32,0,0,1,230.94,252.22Zm26.39-25.37h-7.2a80,80,0,0,0,.86-11.77V211h6.34a7.93,7.93,0,0,1,0,15.86Z" transform="translate(-25.68 -38.52)"/></g></svg>