<svg xmlns="http://www.w3.org/2000/svg" viewBox="0 0 223.2 223.2"><defs><style>.cls-1{fill:#00b8d1;}</style></defs><title>smiley</title><g id="Layer_6" data-name="Layer 6"><path class="cls-1" d="M152.68,262.1a111.6,111.6,0,1,1,111.6-111.6A111.73,111.73,0,0,1,152.68,262.1Zm0-213.25A101.65,101.65,0,1,0,254.33,150.5,101.77,101.77,0,0,0,152.68,48.85Z" transform="translate(-41.08 -38.9)"/><path class="cls-1" d="M152.68,219.45a44.12,44.12,0,0,1-44.07-44.07h10a34.12,34.12,0,0,0,68.24,0h9.95A44.12,44.12,0,0,1,152.68,219.45Z" transform="translate(-41.08 -38.9)"/><path class="cls-1" d="M113.59,137.7A22.77,22.77,0,0,1,90.84,115h10a12.8,12.8,0,0,0,25.59,0h10A22.76,22.76,0,0,1,113.59,137.7Z" transform="translate(-41.08 -38.9)"/><path class="cls-1" d="M191.78,137.7A22.77,22.77,0,0,1,169,115H179a12.8,12.8,0,0,0,25.59,0h10A22.76,22.76,0,0,1,191.78,137.7Z" transform="translate(-41.08 -38.9)"/></g></svg>