<?xml version="1.0" encoding="UTF-8" standalone="no"?>
<svg
   viewBox="0 0 223.2 223.2"
   version="1.1"
   id="svg210"
   sodipodi:docname="smiley.svg"
   width="223.2"
   height="223.2"
   inkscape:version="1.1.2 (b8e25be8, 2022-02-05)"
   xmlns:inkscape="http://www.inkscape.org/namespaces/inkscape"
   xmlns:sodipodi="http://sodipodi.sourceforge.net/DTD/sodipodi-0.dtd"
   xmlns="http://www.w3.org/2000/svg"
   xmlns:svg="http://www.w3.org/2000/svg">
  <sodipodi:namedview
     id="namedview212"
     pagecolor="#ffffff"
     bordercolor="#666666"
     borderopacity="1.0"
     inkscape:pageshadow="2"
     inkscape:pageopacity="0.0"
     inkscape:pagecheckerboard="0"
     showgrid="false"
     inkscape:zoom="2.8001792"
     inkscape:cx="111.6"
     inkscape:cy="111.6"
     inkscape:window-width="1296"
     inkscape:window-height="847"
     inkscape:window-x="0"
     inkscape:window-y="25"
     inkscape:window-maximized="0"
     inkscape:current-layer="svg210" />
  <defs
     id="defs197">
    <style
       id="style195">.cls-1{fill:#00b8d1;}</style>
  </defs>
  <title
     id="title199">smiley</title>
  <g
     id="Layer_6"
     data-name="Layer 6">
    <path
       class="cls-1"
       d="m 152.68,262.1 a 111.6,111.6 0 1 1 111.6,-111.6 111.73,111.73 0 0 1 -111.6,111.6 z m 0,-213.25 A 101.65,101.65 0 1 0 254.33,150.5 101.77,101.77 0 0 0 152.68,48.85 Z"
       transform="translate(-41.08,-38.9)"
       id="path201" />
    <path
       class="cls-1"
       d="m 152.68,219.45 a 44.12,44.12 0 0 1 -44.07,-44.07 h 10 a 34.12,34.12 0 0 0 68.24,0 h 9.95 a 44.12,44.12 0 0 1 -44.12,44.07 z"
       transform="translate(-41.08,-38.9)"
       id="path203" />
    <path
       class="cls-1"
       d="M 113.59,137.7 A 22.77,22.77 0 0 1 90.84,115 h 10 a 12.8,12.8 0 0 0 25.59,0 h 10 a 22.76,22.76 0 0 1 -22.84,22.7 z"
       transform="translate(-41.08,-38.9)"
       id="path205" />
    <path
       class="cls-1"
       d="M 191.78,137.7 A 22.77,22.77 0 0 1 169,115 h 10 a 12.8,12.8 0 0 0 25.59,0 h 10 a 22.76,22.76 0 0 1 -22.81,22.7 z"
       transform="translate(-41.08,-38.9)"
       id="path207" />
  </g>
</svg>
