<svg id="Layer_1" data-name="Layer 1" xmlns="http://www.w3.org/2000/svg" viewBox="0 0 300 300"><defs><style>.cls-1{fill:#00b8d1;}.cls-2{fill:#fff;}</style></defs><title>tel</title><rect class="cls-1" width="300" height="300"/><path class="cls-2" d="M206.5,180.28a7.74,7.74,0,0,1,.6,11.63L192.91,206.1c-11.49,11.49-51-4.73-72.43-26.13S82.86,119,94.35,107.55l14.2-14.2a7.73,7.73,0,0,1,11.62.6L139,117a9.26,9.26,0,0,1-.59,12.22l-9,9a6.57,6.57,0,0,0-.88,7.55c.09.18.3.57.62,1.13.55,1,1.22,2,2,3.24a73.7,73.7,0,0,0,19.18,19.18c1.2.8,2.29,1.48,3.25,2,.57.32,1,.52,1.27.69a6.57,6.57,0,0,0,7.39-1l9-9a9.28,9.28,0,0,1,12.23-.6Zm-2.67,3.27-23-18.83a5.05,5.05,0,0,0-6.56.31l-9,9a10.72,10.72,0,0,1-12.37,1.7c-.26-.13-.73-.38-1.37-.74-1-.61-2.23-1.34-3.52-2.2a77.5,77.5,0,0,1-20.32-20.32c-.86-1.28-1.59-2.46-2.19-3.51-.37-.64-.61-1.1-.66-1.21a10.7,10.7,0,0,1,1.6-12.54l9-9a5,5,0,0,0,.31-6.57l-18.83-23a3.51,3.51,0,0,0-5.37-.29L97.34,110.53c-9.13,9.13,6.22,46.55,26.13,66.46s57.33,35.25,66.45,26.13l14.2-14.2a3.52,3.52,0,0,0-.29-5.37Z" transform="translate(0 -0.45)"/></svg>